<svg width="150" height="150" viewBox="0 0 150 150" fill="none" xmlns="http://www.w3.org/2000/svg">
<path d="M28.8939 52.5349C29.9739 53.1239 31.2479 53.5169 32.7199 53.8109L33.9949 59.6969L28.1089 85.0069L25.4599 86.8709L18.1039 118.458L12.1189 123.068L28.8939 52.5349ZM33.7989 52.6339C28.3049 52.5349 23.8899 48.2189 23.8899 42.8239C23.8899 37.0359 28.4039 32.9149 34.0929 32.9149C36.7419 32.9149 39.0959 34.0919 40.6659 36.0539C38.4099 35.7599 36.2519 37.3299 35.5649 39.0959C34.9769 38.8999 34.4849 38.8999 34.0929 38.8999C31.8369 38.8999 30.0709 40.6659 30.0709 42.8239C30.0709 44.9819 31.8369 46.8459 34.0929 46.8459C36.3489 46.8459 37.7229 45.0789 37.7229 42.8239C37.7229 42.7249 37.7229 42.5299 37.7229 42.4309C37.8219 42.3329 38.0169 42.3329 38.3109 42.3329C38.7039 42.3329 39.0959 42.5299 39.0959 43.2159C39.0959 44.0009 38.8009 45.4719 38.8009 46.9439C38.8009 48.3179 39.0959 49.2979 39.4889 50.2789L42.8239 64.2089C42.3329 64.6009 41.8429 65.0909 41.4499 65.6809C39.5849 66.0739 38.0159 67.2499 37.3289 68.9179L33.7989 52.6339ZM54.3019 61.8549C51.4569 61.8549 49.6909 62.0509 47.7289 62.0509C44.6879 62.0509 42.4319 60.7749 41.7459 58.3229C42.9239 58.3229 43.8059 57.3419 43.8059 56.1649C43.8059 53.8109 40.1759 51.4569 40.1759 46.9429C40.1759 45.4709 40.3719 44.0989 40.3719 43.0189C40.3719 41.8419 39.3919 41.0569 38.3119 41.0569C37.4299 41.0569 36.6449 41.4499 36.2529 41.8419C36.0559 39.0949 38.3119 37.0349 41.1569 37.2309C41.5489 36.3479 43.0209 35.2689 44.6889 35.2689C45.8659 35.2689 46.4559 35.5639 47.0429 35.9569C47.5339 35.7609 48.1229 35.6629 48.9069 35.6629C51.1639 35.6629 53.6159 37.5269 53.6159 40.3709C53.6159 43.0199 52.0459 44.2949 50.4769 45.3739C49.6919 45.9619 49.4959 46.5509 49.5949 47.4339C49.6919 48.5139 50.2809 50.3779 50.5739 51.3579C50.8689 52.2409 51.5559 52.6329 52.6349 52.5349C58.0299 52.1419 65.7809 51.5549 70.4889 51.3579C74.9029 51.1619 78.0419 51.0639 81.6719 50.8679C74.8049 52.5349 70.8809 57.1459 69.8009 63.7189L66.6619 65.3859C65.9759 62.7369 62.4439 61.8549 54.3019 61.8549ZM49.8879 88.4409C51.0649 88.1459 51.6539 87.2629 51.6539 86.4789C51.6539 85.3009 50.9669 84.5159 50.0849 83.9259C48.6129 83.0439 47.0429 82.2589 45.6709 81.0819C44.1989 79.8079 43.3169 78.7279 42.4329 77.5509C41.7459 76.7659 41.1569 76.4709 40.2749 76.4709C39.1949 76.4709 38.4109 77.2549 38.4109 78.1389C38.4109 78.6299 38.5099 79.0219 38.7049 79.3169C37.2329 78.8259 36.3509 77.2549 36.3509 75.5879C36.3509 74.0199 37.3319 72.8419 38.3129 72.2539C38.2149 71.9589 38.1169 71.5659 38.1169 71.0759C38.1169 69.0149 39.7849 67.0529 42.4329 66.8579C42.9239 65.4839 44.3939 64.4049 46.3569 64.4049C48.7109 64.4049 51.1639 66.1709 51.1639 69.3099C51.1639 70.8789 50.7709 71.2709 50.7709 72.4489C50.7709 73.1369 50.9669 73.7229 51.9489 74.7059C53.1259 75.8839 53.7139 76.5689 54.4009 76.5689C55.0879 76.5689 55.4799 76.2749 56.2649 75.6859C60.6789 71.9579 64.5049 68.0349 69.8009 65.1889C69.8999 69.7989 71.6649 73.5279 75.4909 76.3729L72.1549 78.9229C71.5679 78.3349 70.9779 78.1389 70.1929 78.1389C68.9179 78.1389 67.6439 78.6299 65.6809 79.9049C63.4249 81.3779 59.6969 85.2029 57.0489 87.7529C55.5769 89.2259 54.0069 90.0109 52.5349 90.0109C51.3579 90.0099 50.3779 89.5179 49.8879 88.4409ZM41.5479 70.3889C40.2739 70.3889 39.3909 71.0769 39.1939 71.8609C39.5859 71.7619 40.0769 71.6649 40.6659 71.6649C42.1379 71.6649 43.4129 72.3529 44.0009 73.5289C44.2949 71.6639 43.2169 70.3889 41.5479 70.3889ZM50.7699 118.457L43.4129 86.8699L40.7639 85.0059L39.4899 78.9229C39.2939 78.1389 39.6859 77.7469 40.2749 77.7469C40.6669 77.7469 40.9619 77.9429 41.3549 78.3349C42.6289 79.8079 43.4149 80.6889 44.7879 81.8659C45.5729 82.5539 46.5539 83.1409 47.5349 83.6329L53.6169 110.022C52.6359 110.904 51.9499 112.278 51.9499 113.749C51.9499 114.829 52.2429 115.81 52.7349 116.693C52.5379 117.182 52.4399 117.672 52.4399 118.261C52.4399 118.85 52.5379 119.439 52.8329 120.027L50.7699 118.457ZM45.9629 39.9789C45.9629 38.3119 44.5899 37.2319 43.3149 37.2319C42.7259 37.2319 42.3329 37.4289 42.0389 37.5269C43.7069 38.2139 44.8849 39.6849 44.7859 42.4309C45.6699 41.8429 45.9629 40.8619 45.9629 39.9789ZM47.5329 68.9179C47.5329 67.6429 46.4539 66.4659 45.0799 66.4659C44.2949 66.4659 43.8059 66.7599 43.5109 66.9559C45.3749 67.3489 46.8469 68.9179 46.9449 70.8799C47.2389 70.3889 47.5329 69.8989 47.5329 68.9179ZM50.6719 39.3909C50.6719 37.9189 49.3969 36.8389 47.9249 36.8389C48.5139 37.3299 49.1029 38.5069 49.1029 39.7829C49.1029 40.3709 49.0039 41.1559 48.6119 42.0389C49.7889 41.6459 50.6719 40.7629 50.6719 39.3909ZM53.8109 118.261C53.8109 117.574 53.9099 117.182 54.2029 116.495C53.7119 115.907 53.3199 114.926 53.3199 113.748C53.3199 112.57 53.9089 111.297 55.1839 110.511C54.7909 107.569 57.1459 105.606 59.7949 105.606C62.7369 105.606 64.2089 107.668 64.6989 109.727C65.0919 111.2 65.6809 111.689 66.3669 111.787C67.6429 111.984 69.7019 111.787 70.4879 111.592C71.3699 111.395 71.7619 110.904 71.7619 109.433C71.8609 99.1329 70.5849 92.5599 70.5849 88.8329C70.5849 84.8109 72.8419 83.0449 75.1959 82.2599C78.3359 81.1809 84.5159 80.2979 87.5569 80.3959C88.9289 80.3959 89.6169 81.2799 90.2039 82.1629C91.2839 83.8299 92.1659 85.5959 93.2459 87.8509C92.4599 88.2449 92.0679 88.9309 92.0679 89.9129C92.0679 91.2849 92.8529 92.4629 93.9319 93.0519L82.4529 93.3459C82.3539 94.0339 82.3539 94.7199 82.3539 95.3079C82.3539 96.5829 83.2379 97.4669 84.4159 97.4669C85.2989 97.4669 86.0839 97.1719 86.7699 96.5829C87.1629 100.606 84.7089 101.88 82.1609 101.978C82.2589 105.608 82.4539 108.257 82.4539 114.831C82.4539 119.539 80.0999 122.384 76.7649 122.384C76.9609 122.189 77.0589 121.894 77.0589 121.6C77.0589 119.736 74.9979 118.853 73.5269 118.853C70.5829 118.853 69.0139 121.207 65.7769 121.207C62.9319 121.207 61.7549 118.853 59.5959 118.853C58.2229 118.853 57.2409 119.736 57.2409 120.913C57.2409 121.502 57.4379 121.992 57.8299 122.483C55.9689 122.48 53.8109 120.714 53.8109 118.261ZM57.6369 112.964C55.7739 112.964 54.7929 114.435 54.9889 115.612C55.3819 115.123 56.1669 114.434 57.7359 114.434C59.0119 114.434 59.9919 115.024 60.5819 115.709C60.5809 114.337 59.5989 112.964 57.6369 112.964ZM58.5199 108.452C56.9509 108.452 56.1659 109.335 56.0669 110.119C56.4589 109.923 57.0489 109.726 57.9309 109.726C59.4999 109.726 60.7749 110.608 61.1669 111.492C61.3649 109.923 60.3839 108.452 58.5199 108.452ZM71.2729 65.2879C71.2729 58.8129 76.1779 53.0249 83.7319 51.2599C86.5769 50.5729 89.0289 50.1799 92.3639 49.2979C98.6429 47.6309 100.605 44.8839 100.605 41.2539C100.605 40.2729 100.408 39.4879 99.9179 38.7029C100.015 39.2919 100.015 39.7829 100.015 40.3699C100.015 44.2939 96.3859 47.8259 91.0889 48.3159C88.2429 48.5119 85.2019 48.9049 82.2599 49.1989C81.5719 49.2969 81.2789 49.0019 81.2789 48.4139L81.1799 43.7059C81.1799 43.5089 81.2789 43.3129 81.5729 43.3129C81.7699 43.3129 81.8679 43.4099 81.9659 43.6069C82.5549 44.4899 83.7329 45.3729 85.3999 45.3729C86.7729 45.3729 87.5589 44.5879 87.5589 43.7059C87.5589 42.7239 86.6739 41.8419 84.9099 41.8419C81.0839 41.8419 79.1219 44.4899 74.9029 44.4899C70.2929 44.4899 68.7229 42.2339 68.7229 40.0749C68.7229 38.3089 69.7039 37.2299 70.9789 36.6419C70.5859 37.1319 70.4889 37.5239 70.4889 38.2109C70.4889 39.6819 72.2549 40.8599 75.3929 40.8599C78.3369 40.8599 80.2009 40.1729 82.4559 40.1729C85.3989 40.1729 87.1649 41.1529 87.9499 42.2329C87.8509 39.9769 86.1839 38.0139 84.0259 38.0139C82.5539 38.0139 81.9649 38.8969 81.7699 39.2899C81.6709 39.5829 81.4749 39.6819 81.2789 39.6819C81.0829 39.6819 80.8869 39.5829 80.8869 39.3889L80.3949 34.4829C80.2979 33.8949 80.5919 33.6009 81.3769 33.5029L86.3799 33.1109C87.2629 35.5629 87.8509 36.9359 89.1259 36.9359C89.8129 36.9359 90.1069 36.1509 90.1069 35.4649C91.1869 35.1709 92.2649 35.1709 93.3429 35.2679C92.0689 34.3859 87.8499 34.8759 86.5749 33.1109C88.6339 33.0119 90.2039 32.9139 91.8719 32.9139C93.5399 32.9139 95.0119 32.9139 96.3849 33.1109C97.9539 33.3059 99.5239 34.1899 99.5239 35.8579C99.5239 36.9369 98.9359 37.7209 97.8569 37.7209C97.4639 37.7209 97.1689 37.6219 96.7779 37.3289C96.8759 38.1129 97.6599 38.6049 98.4449 38.6049C99.7199 38.6049 100.604 37.8199 100.604 36.1519C100.604 35.2679 100.407 34.2889 99.7199 33.5039C101.782 35.1709 103.055 38.1139 103.055 41.5469C103.055 47.5319 100.898 50.6709 94.2259 53.0249C90.7929 54.2029 88.0469 54.9869 84.6139 56.2629C79.0219 58.3219 75.6859 62.1479 75.6859 67.5429C75.6859 71.2709 77.5499 75.4889 81.4739 77.4509C75.4909 76.6679 71.2729 71.2719 71.2729 65.2879ZM77.1589 67.8379C77.1589 62.5419 80.1019 59.4019 85.7919 57.2429C88.9309 56.0659 91.9729 55.1839 94.8169 54.3019C101.783 51.8489 104.234 48.2189 104.234 41.7449C104.234 38.9979 103.45 36.3489 102.174 34.7799C104.331 36.6439 106.098 39.4879 106.098 44.3929C106.098 49.4939 104.626 54.6939 97.5629 57.3419C94.2269 58.6179 92.3639 59.3039 88.8329 60.7749C83.3399 63.1299 81.5729 66.2689 81.5729 70.4869C81.5729 74.5079 83.7319 76.7649 85.3989 78.1379C81.3769 77.4519 77.1589 73.3309 77.1589 67.8379ZM83.0439 70.5849C83.0439 66.6609 84.9079 64.0129 89.7149 61.7569C92.7559 60.3829 95.0129 59.8929 98.5439 58.4209C105.509 55.6739 107.275 50.4749 107.275 44.4909C107.275 42.4299 106.98 39.9779 105.9 37.9179C107.373 39.6839 109.138 42.4299 109.138 47.8259C109.138 53.4179 107.275 58.6179 101.093 61.6579C98.1509 63.0319 96.1879 63.8159 92.8539 65.3859C89.0279 67.3489 86.8699 70.0949 86.8699 73.3309C86.8699 75.8839 88.0479 77.8459 89.1259 78.9229C85.3989 77.8459 83.0439 74.3139 83.0439 70.5849ZM91.9719 31.8369C90.0099 31.8369 88.0479 31.9359 85.9879 32.1309L83.3399 26.9319H87.8519C87.8519 28.1089 88.7349 28.9919 89.8139 28.9919C90.8929 28.9919 91.7759 28.1089 91.7759 26.9319H95.7979C95.7979 28.2059 96.5829 28.9919 97.7599 28.9919C98.8389 28.9919 99.7219 27.9129 99.7219 26.9319H104.235L101.193 32.3279C98.7409 32.0329 95.6009 31.8369 91.9719 31.8369ZM88.3419 73.4299C88.3419 70.6839 90.2049 68.4269 93.5409 66.6609C95.8949 65.4839 97.8569 64.6989 101.782 62.7359C107.961 59.6959 110.315 54.6939 110.315 47.9239C110.315 46.1579 110.021 44.6859 109.726 42.9219C110.806 45.0789 111.688 47.6299 111.688 50.8669C111.688 57.3409 109.432 63.6189 102.958 66.9549C100.212 68.3279 98.6429 69.2119 96.5819 70.1909C93.4419 71.5649 91.9719 73.7219 91.9719 76.2739C91.9719 78.2359 92.4609 79.3149 92.9519 80.1979C90.1079 79.4149 88.3419 76.8639 88.3419 73.4299ZM93.3439 90.1079C93.3439 89.1269 93.6389 88.5379 94.8169 88.3419C93.4429 85.3009 92.3639 83.3389 91.5799 82.0629C91.2859 81.5729 91.5799 81.2789 91.9729 81.2789C92.5609 81.2789 93.0519 81.4749 93.4439 82.0629C94.1309 82.9469 95.0139 84.3189 95.6999 85.5939C96.9759 87.8499 97.7609 90.0099 97.8589 93.1489H96.8779C94.8169 93.1489 93.3439 91.6769 93.3439 90.1079ZM100.31 118.261C100.31 117.574 100.408 117.182 100.703 116.495C100.213 115.907 99.8199 114.926 99.8199 113.748C99.8199 112.57 100.408 111.297 101.684 110.511C101.29 107.569 103.646 105.606 106.293 105.606C109.237 105.606 110.708 107.668 111.199 109.727C111.591 111.2 112.179 111.689 112.866 111.787C114.141 111.984 116.201 111.787 116.986 111.592C117.87 111.395 118.261 110.904 118.261 109.433C118.261 106.981 117.574 103.744 116.986 100.997C115.514 101.192 111.884 101.39 109.138 101.39C103.055 101.39 99.6219 98.6429 99.0339 92.6589C98.8369 90.2069 98.3459 87.8509 96.8749 85.2039C95.7959 83.1429 93.3429 80.3959 93.3429 76.8649C93.3429 74.2169 94.3239 72.6469 97.3649 71.1769C99.5229 70.1949 102.074 69.0179 104.232 67.7419C104.134 71.1769 106.194 75.7869 108.843 77.7489C111.784 79.9059 114.531 80.4949 118.554 80.4949C123.164 80.4949 127.579 79.1209 129.934 76.3749C128.561 77.2569 126.696 77.7489 124.342 77.7489C117.083 77.7489 112.472 72.1569 112.472 66.1729C112.472 61.8569 114.826 58.0299 118.75 54.7939C121.986 52.1449 124.931 50.4779 127.187 48.2209C128.658 46.7499 129.934 44.9839 129.934 42.9249C129.934 40.4719 128.266 38.1169 126.501 37.4309C127.48 36.2539 129.442 35.1749 131.209 35.1749C134.151 35.1749 136.898 37.3329 136.898 40.1779C136.898 42.3349 135.623 44.0029 133.956 44.7879C134.054 46.4559 132.974 48.6129 131.699 49.9879C129.247 52.6359 124.734 55.4809 121.792 57.8359C118.848 60.1899 117.278 62.6429 117.278 65.9779C117.278 70.3919 120.81 73.6289 125.323 73.6289C129.54 73.6289 133.171 70.3919 133.171 65.8789C133.171 61.7599 130.228 58.7179 125.716 56.6589L129.443 54.0099C133.465 56.3639 137.881 59.6009 137.881 66.5669C137.881 76.1799 130.131 84.6179 117.574 84.6179C113.649 84.6179 112.57 84.1269 110.118 83.1449C111.687 84.6179 113.354 86.7749 113.453 89.4219C115.415 90.0129 116.789 90.3069 121.007 90.3069C122.872 90.3069 125.422 90.0129 127.482 89.4219C128.954 89.0299 129.836 88.4429 130.328 87.7549C130.818 88.5399 131.112 89.4219 131.112 90.2079C131.112 92.4639 129.444 94.2289 127.678 94.6219C128.366 101.587 128.953 108.552 128.953 114.831C128.953 119.539 126.599 122.384 123.264 122.384C123.46 122.189 123.558 121.894 123.558 121.6C123.558 119.736 121.498 118.853 120.026 118.853C117.085 118.853 115.514 121.207 112.278 121.207C109.432 121.207 108.255 118.853 106.097 118.853C104.722 118.853 103.743 119.736 103.743 120.913C103.743 121.502 103.937 121.992 104.33 122.483C102.468 122.48 100.31 120.714 100.31 118.261ZM104.136 112.964C102.272 112.964 101.29 114.435 101.487 115.612C101.881 115.123 102.665 114.434 104.234 114.434C105.509 114.434 106.491 115.024 107.079 115.709C107.079 114.337 106.098 112.964 104.136 112.964ZM105.018 108.452C103.45 108.452 102.664 109.335 102.567 110.119C102.959 109.923 103.547 109.726 104.43 109.726C105.999 109.726 107.276 110.608 107.667 111.492C107.863 109.923 106.882 108.452 105.018 108.452ZM117.281 44.5899C115.81 43.8049 114.534 42.1379 114.534 40.1759C114.534 37.3309 116.987 35.1729 119.93 35.1729C122.186 35.1729 123.756 36.2519 124.737 37.4289C122.874 38.4089 121.402 40.7639 121.402 42.9229C121.402 45.7669 122.874 47.5329 124.246 49.0039L120.617 51.6529C118.556 49.7879 117.281 47.3359 117.281 44.5899Z" fill="white"/>
<rect x="1.5" y="1.5" width="147" height="147" stroke="white" stroke-width="3"/>
</svg>
